# xmcd CD database file generated by Grip 3.0.3
# 
# Track frame offsets:
#       150
#       3337
#       24372
#       47360
#       72022
#       96825
#       118272
#       138327
#       163282
#       185570
#       210150
# 
# Disc length: 3098 seconds
# 
# Revision: 4
# Processed by: cddbd v1.4PL0 Copyright (c) Steve Scherf et al.
# Submitted via: Grip 3.0.3
# 
DISCID=8b0c180b
DTITLE=Fuemana - New Urban Polynesian
DYEAR=1994
DGENRE=Blues
TTITLE0=Seasons (Otara Love Theme)
TTITLE1=Seasons
TTITLE2=Rockit Love
TTITLE3=Dangerous Love (94 remix)
TTITLE4=Last Summer
TTITLE5=Deep Of The Night (love and bass)
TTITLE6=Closer (94 remix)
TTITLE7=Broken Hearted
TTITLE8=Cool Calm
TTITLE9=Fa a Samoa (coconut mix)
TTITLE10=Closer (93 mix)
EXTD=
EXTT0=
EXTT1=
EXTT2=
EXTT3=
EXTT4=
EXTT5=
EXTT6=
EXTT7=
EXTT8=
EXTT9=
EXTT10=
PLAYORDER=
